<svg xmlns="http://www.w3.org/2000/svg" xmlns:xlink="http://www.w3.org/1999/xlink" id="Layer_2" viewBox="0 0 414.02 116.27"><defs><style>      .cls-1 {        fill: #18164b;      }      .cls-2 {        fill: url(#New_Gradient_Swatch);      }      .cls-3 {        fill: url(#radial-gradient);      }    </style><linearGradient id="New_Gradient_Swatch" data-name="New Gradient Swatch" x1="57.49" y1="45.98" x2="54.92" y2="124.08" gradientUnits="userSpaceOnUse"><stop offset="0" stop-color="#ffcb40"></stop><stop offset=".46" stop-color="#faae41"></stop><stop offset=".59" stop-color="#f0a23e"></stop><stop offset=".82" stop-color="#e29139"></stop><stop offset="1" stop-color="#de8b38"></stop></linearGradient><radialGradient id="radial-gradient" cx="54.7" cy="11.73" fx="54.7" fy="11.73" r="100.52" gradientUnits="userSpaceOnUse"><stop offset="0" stop-color="#1468b0"></stop><stop offset=".34" stop-color="#2d358e"></stop><stop offset="1" stop-color="#18114a"></stop></radialGradient></defs><g id="Layer_1-2" data-name="Layer_1"><g><path class="cls-2" d="M56.07,9.31L0,60.17v56.1l42.26-45.63c7.38-8.61,11.57-17.55,13.83-25.86,2.27,8.31,6.46,17.25,13.83,25.86l42.26,45.63v-56.1L56.07,9.31Z"></path><path class="cls-3" d="M56.07,0L0,50.86v56.1l42.26-45.63c7.38-8.61,11.57-17.55,13.83-25.86,2.27,8.31,6.46,17.25,13.83,25.86l42.26,45.63v-56.1L56.07,0Z"></path><g><path class="cls-1" d="M192.99,30.04h10.14v58.29h-10.14v-10.03c-5.05,7.69-12.4,11.54-22.03,11.54-8.16,0-15.12-2.97-20.87-8.92-5.75-5.95-8.63-13.19-8.63-21.74s2.87-15.8,8.63-21.74c5.75-5.94,12.71-8.92,20.87-8.92,9.64,0,16.98,3.85,22.03,11.54v-10.02ZM172.23,80.06c5.91,0,10.84-2,14.81-6,3.96-4,5.95-8.96,5.95-14.86s-1.98-10.86-5.95-14.86c-3.96-4-8.9-6-14.81-6s-10.72,2-14.69,6c-3.96,4-5.95,8.96-5.95,14.86s1.98,10.86,5.95,14.86c3.96,4,8.86,6,14.69,6Z"></path><path class="cls-1" d="M250.69,28.53c8.16,0,15.11,2.97,20.87,8.92,5.75,5.95,8.63,13.19,8.63,21.74s-2.88,15.8-8.63,21.74c-5.75,5.95-12.71,8.92-20.87,8.92-9.64,0-16.98-3.85-22.03-11.54v28.66h-10.14V30.04h10.14v10.02c5.05-7.69,12.39-11.54,22.03-11.54ZM249.41,80.06c5.83,0,10.72-2,14.69-6,3.96-4,5.95-8.96,5.95-14.86s-1.98-10.86-5.95-14.86c-3.96-4-8.86-6-14.69-6s-10.84,2-14.8,6c-3.96,4-5.95,8.96-5.95,14.86s1.98,10.86,5.95,14.86c3.96,4,8.9,6,14.8,6Z"></path><path class="cls-1" d="M322.74,39.84h-15.5v32.65c0,2.87.56,4.92,1.69,6.12,1.13,1.21,2.86,1.83,5.19,1.87,2.33.04,5.21-.02,8.63-.17v9.09c-8.86,1.17-15.35.45-19.47-2.16-4.12-2.6-6.18-7.52-6.18-14.75v-32.65h-11.54v-9.79h11.54v-13.29l10.14-3.03v16.32h15.5v9.79Z"></path><path class="cls-1" d="M334.74,89.93V30.04h10.14v59.89h-10.14Z"></path><path class="cls-1" d="M387.79,89.85c-8.78,0-16.09-2.93-21.92-8.8-5.83-5.87-8.74-13.15-8.74-21.86s2.92-15.99,8.74-21.86c5.83-5.87,13.13-8.8,21.92-8.8,5.75,0,10.92,1.38,15.51,4.14,4.58,2.76,8,6.47,10.26,11.13l-8.51,4.9c-1.48-3.11-3.75-5.59-6.82-7.46-3.07-1.87-6.55-2.8-10.43-2.8-5.83,0-10.71,1.98-14.63,5.95-3.93,3.96-5.89,8.9-5.89,14.81s1.96,10.72,5.89,14.69c3.92,3.96,8.8,5.95,14.63,5.95,3.89,0,7.38-.91,10.49-2.74,3.11-1.82,5.48-4.29,7.11-7.4l8.63,5.01c-2.49,4.59-6.06,8.26-10.72,11.02-4.66,2.76-9.83,4.14-15.51,4.14Z"></path></g></g></g></svg>